<mxfile host="app.diagrams.net" modified="2021-05-14T14:26:35.064Z" agent="5.0 (Macintosh; Intel Mac OS X 10_15_7) AppleWebKit/537.36 (KHTML, like Gecko) Chrome/90.0.4430.93 Safari/537.36" etag="LBnu6cMIDviQaRSLVpfS" version="14.6.11" type="github">
  <diagram id="nNNbYIVWa4341L-L7LT6" name="Page-1">
    <mxGraphModel dx="1577" dy="928" grid="1" gridSize="10" guides="1" tooltips="1" connect="1" arrows="1" fold="1" page="1" pageScale="1" pageWidth="3300" pageHeight="4681" math="0" shadow="0">
      <root>
        <mxCell id="0" />
        <mxCell id="1" parent="0" />
        <mxCell id="4zw3vZrptV4HVFFLCSen-1" value="&lt;ul style=&quot;font-size: 32px&quot;&gt;&lt;li style=&quot;font-size: 32px&quot;&gt;Guest(&lt;b&gt;Id_guest&lt;/b&gt;&lt;u&gt;,&lt;/u&gt;&amp;nbsp;nome, cognome, immagine, data_nascita, indirizzo_email, password)&lt;/li&gt;&lt;li style=&quot;font-size: 32px&quot;&gt;Domanda(&lt;b&gt;Id_domanda, &lt;/b&gt;domanda, data_domanda, &lt;u&gt;Id_guest)&lt;/u&gt;&lt;/li&gt;&lt;li style=&quot;font-size: 32px&quot;&gt;Risposta(&lt;b&gt;Id_risposta,&lt;/b&gt;&amp;nbsp;risposta, data_risposta&lt;u&gt;,&lt;/u&gt; &lt;u&gt;Id_contributor&lt;/u&gt;)&lt;/li&gt;&lt;li style=&quot;font-size: 32px&quot;&gt;Contributor(&lt;b&gt;Id_contributor&lt;/b&gt;&lt;u&gt;,&lt;/u&gt;&amp;nbsp;nome_azienda, settore, partita_iva, descrizione_attività, stato, provincia, città, indirizzo, cap, telefono, fax, indirizzo_email, password)&lt;/li&gt;&lt;li style=&quot;font-size: 32px&quot;&gt;Servizio(&lt;b&gt;Id_servizio, &lt;/b&gt;nome_servizio, descrizione_servizio, immagine, prezzo, disponibilità, &lt;u&gt;Id_contributor&lt;/u&gt;)&lt;/li&gt;&lt;li style=&quot;font-size: 32px&quot;&gt;Servizio_Ordine(&lt;b&gt;Id_servizio_ordine, &lt;/b&gt;data, &lt;u&gt;Id_ordine,&lt;/u&gt; &lt;u&gt;Id_servizio)&lt;/u&gt;&lt;/li&gt;&lt;li style=&quot;font-size: 32px&quot;&gt;Ordine(&lt;b&gt;Id_ordine, &lt;/b&gt;quantità, &lt;u&gt;Id_promozione)&lt;/u&gt;&lt;/li&gt;&lt;li style=&quot;font-size: 32px&quot;&gt;Pagamento(&lt;b&gt;Id_pagamento&lt;/b&gt;&lt;u&gt;,&lt;/u&gt;&amp;nbsp;data_pagamento&amp;nbsp;)&lt;/li&gt;&lt;li style=&quot;font-size: 32px&quot;&gt;Modalità_pagamento(&lt;b&gt;Id_modalità_pagamento,&lt;/b&gt;&amp;nbsp;nome_modalità,&amp;nbsp;&amp;nbsp;&lt;u&gt;Id_pagamento&lt;/u&gt;)&lt;/li&gt;&lt;li style=&quot;font-size: 32px&quot;&gt;Promozione(&lt;b&gt;Id_promozione&lt;/b&gt;, nome_promozione, data_promozione, percentuale promozione)&lt;/li&gt;&lt;li style=&quot;font-size: 32px&quot;&gt;Spedizione(&lt;b&gt;Id_spedizione,&lt;/b&gt;&amp;nbsp;data, &lt;u&gt;Id_indirizzo)&lt;/u&gt;&lt;/li&gt;&lt;li style=&quot;font-size: 32px&quot;&gt;Indirizzo(&lt;b&gt;Id_indirizzo, &lt;/b&gt;indirizzo, info_aggiuntive, cap, città, &lt;u&gt;Id_guest)&lt;/u&gt;&lt;/li&gt;&lt;/ul&gt;" style="text;strokeColor=none;fillColor=none;html=1;whiteSpace=wrap;verticalAlign=middle;overflow=hidden;rounded=0;sketch=0;fontColor=#1A1A1A;fontSize=32;" vertex="1" parent="1">
          <mxGeometry x="220" y="330" width="1320" height="710" as="geometry" />
        </mxCell>
        <mxCell id="4zw3vZrptV4HVFFLCSen-2" value="SCHEMA TABELLE" style="text;strokeColor=none;fillColor=none;html=1;fontSize=24;fontStyle=1;verticalAlign=middle;align=center;rounded=0;sketch=0;" vertex="1" parent="1">
          <mxGeometry x="810" y="280" width="100" height="40" as="geometry" />
        </mxCell>
      </root>
    </mxGraphModel>
  </diagram>
</mxfile>
